<?xml version="1.0" standalone="no"?>
<!DOCTYPE svg PUBLIC "-//W3C//DTD SVG 20010904//EN"
 "http://www.w3.org/TR/2001/REC-SVG-20010904/DTD/svg10.dtd">
<svg version="1.0" xmlns="http://www.w3.org/2000/svg"
 width="1500.000000pt" height="1500.000000pt" viewBox="0 0 1500.000000 1500.000000"
 preserveAspectRatio="xMidYMid meet">
<metadata>
Created by potrace 1.14, written by Peter Selinger 2001-2017
</metadata>
<g transform="translate(0.000000,1500.000000) scale(0.100000,-0.100000)"
fill="#000000" stroke="none">
<path d="M0 7500 l0 -7500 7500 0 7500 0 0 7500 0 7500 -7500 0 -7500 0 0
-7500z m7200 5445 l0 -535 -572 0 c-315 0 -853 -3 -1195 -7 l-623 -6 0 -629 0
-628 895 0 895 0 0 -540 0 -540 -895 0 -895 0 0 -1159 0 -1159 -21 -56 -22
-56 -688 0 -689 0 0 2925 0 2925 1905 0 1905 0 0 -535z m1929 -1691 c2 -2 -1
-28 -8 -56 -17 -70 -17 -72 18 -79 33 -7 32 -9 56 92 6 25 8 26 45 17 l38 -10
-14 -51 c-19 -73 -19 -75 31 -98 88 -42 125 -104 105 -179 -12 -43 -52 -90
-76 -90 -21 0 -17 -8 21 -41 41 -37 53 -83 35 -142 -29 -99 -77 -131 -200
-131 l-84 -1 -14 -57 c-15 -60 -21 -65 -68 -52 -20 5 -21 7 -7 66 15 65 11 76
-27 80 -22 3 -25 -3 -39 -60 -15 -63 -15 -63 -45 -56 -46 9 -45 9 -30 76 17
71 18 70 -68 88 -33 7 -62 19 -65 26 -2 7 3 26 12 44 15 29 19 31 55 25 31 -5
40 -3 48 12 18 35 95 370 89 386 -3 9 -25 21 -47 27 -31 8 -40 15 -36 26 3 9
6 21 6 27 1 34 15 36 90 17 41 -11 76 -20 76 -20 1 0 5 12 8 28 26 107 25 104
59 97 18 -4 34 -9 36 -11z m-2512 -2786 c6 -13 385 -922 843 -2021 458 -1099
837 -1994 841 -1990 7 8 228 531 321 761 29 70 345 834 704 1697 l653 1570
255 0 c141 0 508 -1 816 -3 l560 -2 0 -2925 0 -2925 -710 0 -710 0 -2 1652 -3
1651 -467 -1134 c-257 -624 -563 -1366 -680 -1649 l-213 -515 -531 -3 -530 -2
-278 672 c-152 370 -458 1113 -679 1651 l-402 978 -3 -1650 -2 -1651 -708 0
-709 0 -6 902 c-9 1171 -9 4943 0 4951 3 4 372 7 818 7 l812 0 10 -22z"/>
<path d="M9086 11032 c-7 -12 -36 -129 -36 -145 0 -19 99 -42 138 -32 53 13
76 58 56 110 -11 27 -147 85 -158 67z"/>
<path d="M9021 10777 c-5 -12 -15 -52 -24 -89 l-15 -68 40 -10 c22 -6 66 -12
99 -12 49 -1 64 3 84 22 66 62 5 137 -136 169 -36 8 -41 7 -48 -12z"/>
</g>
</svg>
